<?xml version="1.0" standalone="no"?><!DOCTYPE svg PUBLIC "-//W3C//DTD SVG 1.1//EN" "http://www.w3.org/Graphics/SVG/1.1/DTD/svg11.dtd"><svg t="1778834971684" class="icon" viewBox="0 0 1024 1024" version="1.1" xmlns="http://www.w3.org/2000/svg" p-id="12937" xmlns:xlink="http://www.w3.org/1999/xlink" width="200" height="200"><path d="M632 863.7c-110.7 0-231.4-49.6-326.8-144.9-166.5-166.5-193.6-410.3-60.4-543.5l15.1-15.1 65.2 65.2-8 14.2c-72.7 127.6-46.5 293.6 63.6 403.7 110.1 110.1 276.1 136.4 403.8 63.6l14.1-8 65.2 65.2-15.1 15.1c-56.8 56.8-134 84.5-216.7 84.5zM260.7 221.2c-99.5 119.5-68.5 324 74.8 467.3s347.9 174.3 467.3 74.8l-11.6-11.6c-141.9 72.5-321 41.4-440.6-78.3C231 553.8 199.9 374.9 272.3 232.8l-11.6-11.6z" fill="#3366CC" p-id="12938"></path><path d="M283.514 244.034l30.193-30.193 496.455 496.455-30.194 30.193z" fill="#3366CC" p-id="12939"></path><path d="M628.3 790.3c-100.1 0-201.1-40.3-277.7-116.9-123.7-123.7-152.7-310.8-70.5-455.1l37.1 21.1C244.5 367 270.7 533 380.8 643.1c110.1 110.1 276.1 136.4 403.8 63.6l21.1 37.1c-54.9 31.4-116 46.5-177.4 46.5z" fill="#3366CC" p-id="12940"></path><path d="M305.277 386.59l30.185-30.207 30.206 30.185-30.185 30.206zM320.408 522.477l30.206-30.185 30.184 30.206-30.206 30.185zM471.424 673.454l30.185-30.206 30.206 30.184-30.185 30.206zM478.9 560.2L448.7 530l30.2-30.2 30.2 30.2zM592.157 673.422l30.193-30.193 30.194 30.193-30.194 30.193z" fill="#F4A914" p-id="12941"></path></svg>